<?xml version="1.0" encoding="iso-8859-1"?>
<!-- Generator: Adobe Illustrator 19.0.0, SVG Export Plug-In . SVG Version: 6.00 Build 0)  -->
<svg version="1.1" id="Layer_1" xmlns="http://www.w3.org/2000/svg" xmlns:xlink="http://www.w3.org/1999/xlink" x="0px" y="0px"
	 viewBox="0 0 512 512" style="enable-background:new 0 0 512 512;" xml:space="preserve">
<path style="fill:#4CCAED;" d="M389.798,476.32c0,19.705-15.974,35.68-35.68,35.68H157.881c-19.705,0-35.68-15.974-35.68-35.68
	V35.68c0-19.705,15.974-35.68,35.68-35.68h196.237c19.705,0,35.68,15.974,35.68,35.68V476.32z"/>
<path style="fill:#74E7E7;" d="M249.188,45.511h-70.096c-6.284,0-11.378,5.094-11.378,11.378v320.316
	c0,6.284,5.094,11.378,11.378,11.378h70.096c6.284,0,11.378-5.094,11.378-11.378V56.889
	C260.566,50.605,255.472,45.511,249.188,45.511z"/>
<circle style="fill:#06344C;" cx="214.141" cy="217.088" r="15.36"/>
<circle style="fill:#0278AA;" cx="214.141" cy="138.934" r="8.533"/>
<circle style="fill:#06344C;" cx="214.141" cy="91.932" r="15.36"/>
<path style="fill:#0278AA;" d="M249.188,431.25h-70.096c-4.714,0-8.533-3.82-8.533-8.533c0-4.714,3.82-8.533,8.533-8.533h70.096
	c4.714,0,8.533,3.82,8.533,8.533C257.721,427.43,253.901,431.25,249.188,431.25z"/>
<g>
</g>
<g>
</g>
<g>
</g>
<g>
</g>
<g>
</g>
<g>
</g>
<g>
</g>
<g>
</g>
<g>
</g>
<g>
</g>
<g>
</g>
<g>
</g>
<g>
</g>
<g>
</g>
<g>
</g>
</svg>
